<svg xmlns="http://www.w3.org/2000/svg" viewBox="0 0 100 100" class="icon" version="1.1"
  xmlns:xlink="http://www.w3.org/1999/xlink">
  <style>
    path {
      fill: black;
    }
    @media (prefers-color-scheme: dark) {
      path {
        fill: white;
      }
    }
  </style>
  <path d="M92.5 58.2h-2.6l.1-1c.3-4.5-.9-9-3.4-12.8l-.4-.5c-2.7-4.1-3.4-9.2-1.8-13.9.3-.9.1-1.8-.5-2.5s-1.6-.9-2.5-.7L69.3 30c-.8.2-1.5.8-1.7 1.6-2.1 6.2-1.2 12.8 2.4 18.2l.4.5c1.5 2.3 2.4 5 2.6 7.8H61c-1.1-1-2.3-1.9-3.5-2.7V44.3l4.3-4.3c1-1 1-2.6 0-3.5s-2.6-1-3.5 0l-5 5-10.8 10.7c-5.1.5-9.8 2.6-13.5 6.1h-1.5v-2.5c0-.9.4-1.8 1-2.5l1.5-1.5c1.6-1.6 2.5-3.8 2.5-6s-.9-4.4-2.5-6c-2.6-2.6-6-4-9.6-4h-.9c-3.6 0-7 1.4-9.6 4-1.6 1.6-2.5 3.8-2.5 6s.9 4.4 2.5 6l1.5 1.5c.7.7 1 1.6 1 2.5v2.5h-5c-1.4 0-2.5 1.1-2.5 2.5v10c0 1.4 1.1 2.5 2.5 2.5h85c1.4 0 2.5-1.1 2.5-2.5v-10c.1-1.4-1-2.6-2.4-2.6zm-2.5 10H10v-5h20c.7 0 1.3-.3 1.8-.7C35.3 59 40 57 45 57s9.7 1.9 13.2 5.5c.5.5 1.1.7 1.8.7h30v5zM74.5 47.7l-.4-.5c-2.5-3.8-3.3-8.3-2.2-12.6l6.7-1.8c-.6 4.9.6 9.8 3.3 14l.4.5c1.9 2.9 2.8 6.3 2.6 9.7l-.1 1.3h-7c-.1-3.8-1.3-7.5-3.3-10.6zm-22 5.6c-1-.3-2.1-.6-3.1-.8l3.1-3.1v3.9zM15 49.7l-1.5-1.5c-.7-.7-1-1.6-1-2.5 0-.9.4-1.8 1-2.5 1.6-1.6 3.8-2.5 6-2.5h.9c2.3 0 4.4.9 6 2.5.7.7 1 1.6 1 2.5 0 .9-.4 1.8-1 2.5L25 49.7c-1.6 1.6-2.5 3.8-2.5 6v2.5h-5v-2.5c0-2.2-.9-4.4-2.5-6z"></path>
</svg>
