<svg xmlns="http://www.w3.org/2000/svg" viewBox="-140 0 350 165" class="iconAboveSlogan">
  <g fill="black" transform="matrix(4.243281367976305,0,0,4.243281367976305,-126.53662097868295,104.65487965025815)">
    <path d="M7.39 6.78C7.39 4.45 6.68 3.00 4.68 3.00C3.39 3.00 2.59 3.61 2.31 4.61C2.31 4.13 2.28 3.51 2.27 3.14L1.16 3.14C1.19 3.64 1.20 3.95 1.20 4.70L1.20 13.75L2.34 13.75L2.34 10.33C2.34 10.04 2.32 9.51 2.31 9.17C2.67 10.22 3.53 10.64 4.68 10.64C6.71 10.64 7.39 9.06 7.39 6.78ZM6.22 6.79C6.22 8.75 5.75 9.80 4.37 9.80C3.07 9.80 2.34 9.03 2.34 6.87C2.34 4.42 3.25 3.86 4.38 3.86C5.74 3.86 6.22 4.89 6.22 6.79ZM14.14 6.73C14.14 9.02 13.33 9.80 12.05 9.80C10.93 9.80 9.98 9.00 9.98 6.73C9.98 4.54 10.79 3.84 12.07 3.84C13.38 3.84 14.14 4.59 14.14 6.73ZM15.33 6.79C15.33 4.24 14.25 3.00 12.08 3.00C10.01 3.00 8.79 4.21 8.79 6.76C8.79 9.46 10.11 10.64 12.00 10.64C14.08 10.64 15.33 9.42 15.33 6.79ZM17.25 10.50L18.37 10.50L18.37 3.14L17.25 3.14ZM17.19 1.61L18.42 1.61L18.42 0.35L17.19 0.35ZM23.52 10.64C25.44 10.64 26.04 9.73 26.38 8.90L25.41 8.62C25.14 9.34 24.72 9.79 23.55 9.79C22.04 9.79 21.49 8.64 21.49 7.06L21.49 7.04L26.53 7.04C26.54 6.89 26.56 6.66 26.56 6.52C26.56 4.59 25.94 3.00 23.49 3.00C21.66 3.00 20.29 4.09 20.29 6.76C20.29 9.30 21.35 10.64 23.52 10.64ZM23.49 3.84C24.75 3.84 25.37 4.54 25.37 6.08L25.37 6.17L21.49 6.17C21.57 4.34 22.51 3.84 23.49 3.84ZM32.82 10.50L33.94 10.50L33.94 6.23C33.94 4.69 34.64 3.88 35.69 3.88C36.72 3.88 37.09 4.30 37.09 5.78L37.09 10.50L38.21 10.50L38.21 5.56C38.21 3.71 37.56 3.00 36.08 3.00C35.14 3.00 34.23 3.46 33.81 4.51C33.66 3.60 33.12 3.00 31.79 3.00C30.52 3.00 29.88 3.68 29.57 4.58C29.57 4.03 29.54 3.43 29.54 3.14L28.49 3.14C28.50 3.57 28.52 4.17 28.52 4.69L28.52 10.50L29.65 10.50L29.65 6.23C29.65 4.73 30.44 3.85 31.42 3.85C32.44 3.85 32.82 4.30 32.82 5.78ZM47.07 9.73L46.41 9.73C46.10 9.73 45.98 9.60 45.98 9.23L45.98 5.50C45.98 3.85 45.02 3.00 43.30 3.00C41.38 3.00 40.68 3.88 40.50 4.97L41.62 5.10C41.78 4.19 42.31 3.86 43.25 3.86C44.30 3.86 44.87 4.35 44.87 5.46L44.87 6.06L43.48 6.06C41.34 6.06 40.17 6.69 40.17 8.43C40.17 9.60 40.91 10.64 42.50 10.64C43.60 10.64 44.53 10.28 44.91 9.09L44.91 9.45C44.91 10.22 45.39 10.64 46.12 10.64C46.51 10.64 46.80 10.63 47.07 10.60ZM42.77 9.80C41.76 9.80 41.29 9.16 41.29 8.36C41.29 7.18 42.18 6.85 43.47 6.85L44.87 6.85L44.87 7.38C44.87 8.53 44.44 9.80 42.77 9.80ZM52.15 10.50L53.28 10.50L53.28-0.39L52.15-0.39ZM62.19 9.73L61.53 9.73C61.22 9.73 61.10 9.60 61.10 9.23L61.10 5.50C61.10 3.85 60.14 3.00 58.42 3.00C56.50 3.00 55.80 3.88 55.62 4.97L56.74 5.10C56.90 4.19 57.43 3.86 58.37 3.86C59.42 3.86 59.99 4.35 59.99 5.46L59.99 6.06L58.60 6.06C56.46 6.06 55.29 6.69 55.29 8.43C55.29 9.60 56.03 10.64 57.62 10.64C58.72 10.64 59.65 10.28 60.03 9.09L60.03 9.45C60.03 10.22 60.51 10.64 61.24 10.64C61.63 10.64 61.92 10.63 62.19 10.60ZM57.89 9.80C56.88 9.80 56.41 9.16 56.41 8.36C56.41 7.18 57.30 6.85 58.59 6.85L59.99 6.85L59.99 7.38C59.99 8.53 59.56 9.80 57.89 9.80ZM69.99 6.76C69.99 4.21 69.10 3.00 67.19 3.00C66.18 3.00 65.34 3.40 64.90 4.28C64.92 4.02 64.93 3.77 64.93 3.58L64.93-0.39L63.80-0.39L63.80 8.99C63.80 9.55 63.78 10.09 63.77 10.50L64.86 10.50C64.89 10.05 64.90 9.72 64.92 9.27C65.28 10.28 66.22 10.64 67.10 10.64C69.06 10.64 69.99 9.37 69.99 6.76ZM68.81 6.80C68.81 8.99 68.19 9.80 66.95 9.80C65.65 9.80 64.93 9.00 64.93 6.87C64.93 4.68 65.63 3.88 66.98 3.88C68.25 3.88 68.81 4.72 68.81 6.80ZM76.87 8.48C76.87 6.92 75.59 6.57 74.40 6.26C72.91 5.88 72.51 5.56 72.51 4.84C72.51 4.24 73.11 3.85 73.98 3.85C74.91 3.85 75.52 4.17 75.68 4.93L76.72 4.80C76.47 3.56 75.49 3.00 73.98 3.00C72.46 3.00 71.41 3.72 71.41 5.01C71.41 6.19 72.17 6.82 73.78 7.21C75.07 7.52 75.78 7.71 75.78 8.57C75.78 9.48 75.07 9.80 74.03 9.80C72.94 9.80 72.35 9.25 72.16 8.57L71.11 8.78C71.43 10.14 72.49 10.64 74.05 10.64C75.92 10.64 76.87 9.87 76.87 8.48Z"/>
  </g>
  <g transform="matrix(1.9324290034061853,0,0,1.9324290034061853,-46.531152055933305,-50.92055978999666)" stroke="none" fill="black">
    <path d="M92.5 58.2h-2.6l.1-1c.3-4.5-.9-9-3.4-12.8l-.4-.5c-2.7-4.1-3.4-9.2-1.8-13.9.3-.9.1-1.8-.5-2.5s-1.6-.9-2.5-.7L69.3 30c-.8.2-1.5.8-1.7 1.6-2.1 6.2-1.2 12.8 2.4 18.2l.4.5c1.5 2.3 2.4 5 2.6 7.8H61c-1.1-1-2.3-1.9-3.5-2.7V44.3l4.3-4.3c1-1 1-2.6 0-3.5s-2.6-1-3.5 0l-5 5-10.8 10.7c-5.1.5-9.8 2.6-13.5 6.1h-1.5v-2.5c0-.9.4-1.8 1-2.5l1.5-1.5c1.6-1.6 2.5-3.8 2.5-6s-.9-4.4-2.5-6c-2.6-2.6-6-4-9.6-4h-.9c-3.6 0-7 1.4-9.6 4-1.6 1.6-2.5 3.8-2.5 6s.9 4.4 2.5 6l1.5 1.5c.7.7 1 1.6 1 2.5v2.5h-5c-1.4 0-2.5 1.1-2.5 2.5v10c0 1.4 1.1 2.5 2.5 2.5h85c1.4 0 2.5-1.1 2.5-2.5v-10c.1-1.4-1-2.6-2.4-2.6zm-2.5 10H10v-5h20c.7 0 1.3-.3 1.8-.7C35.3 59 40 57 45 57s9.7 1.9 13.2 5.5c.5.5 1.1.7 1.8.7h30v5zM74.5 47.7l-.4-.5c-2.5-3.8-3.3-8.3-2.2-12.6l6.7-1.8c-.6 4.9.6 9.8 3.3 14l.4.5c1.9 2.9 2.8 6.3 2.6 9.7l-.1 1.3h-7c-.1-3.8-1.3-7.5-3.3-10.6zm-22 5.6c-1-.3-2.1-.6-3.1-.8l3.1-3.1v3.9zM15 49.7l-1.5-1.5c-.7-.7-1-1.6-1-2.5 0-.9.4-1.8 1-2.5 1.6-1.6 3.8-2.5 6-2.5h.9c2.3 0 4.4.9 6 2.5.7.7 1 1.6 1 2.5 0 .9-.4 1.8-1 2.5L25 49.7c-1.6 1.6-2.5 3.8-2.5 6v2.5h-5v-2.5c0-2.2-.9-4.4-2.5-6z"/>
  </g>
  <g data-v-423bf9ae="" id="d38da51f-79e1-4c8f-b056-7866a8e659be" fill="black" transform="matrix(Infinity,0,0,Infinity,0,0)">
    <path d=""/>
  </g>
</svg>
